<?xml version="1.0" encoding="UTF-8"?>
<svg id="Layer_1" xmlns="http://www.w3.org/2000/svg" version="1.1" viewBox="0 0 67.4 35">
  <!-- Generator: Adobe Illustrator 30.4.0, SVG Export Plug-In . SVG Version: 2.1.4 Build 226)  -->
  <defs>
    <style>
      .st0 {
        fill: #fff;
      }

      .st1 {
        isolation: isolate;
      }

      .st2 {
        fill: #00a63e;
        stroke: #00a63e;
        stroke-width: 2px;
      }
    </style>
  </defs>
  <path class="st2" d="M63.9,22h0c1.38,0,2.5,1.12,2.5,2.5h0c0,1.38-1.12,2.5-2.5,2.5h0c-1.38,0-2.5-1.12-2.5-2.5h0c0-1.38,1.12-2.5,2.5-2.5Z"/>
  <g class="st1">
    <g class="st1">
      <path class="st0" d="M5.43,23.38v-6.31h-2.83v-2.58h2.83v-3.31h3.01v3.31h3.83v2.58h-3.83v6.24c0,1.22.52,1.96,1.86,1.96.77,0,1.47-.12,1.96-.22v2.73c-.6.17-1.22.32-2.24.32-2.66,0-4.6-1.64-4.6-4.72h.01Z"/>
      <path class="st0" d="M13.43,21.16c0-4,2.96-7.01,6.76-7.01,1.62,0,3.36.87,4.28,2.06v-1.74h2.83v13.37h-2.83v-1.74c-.92,1.19-2.63,2.06-4.28,2.06-3.8,0-6.76-3.01-6.76-7.01h0ZM24.32,21.16c0-2.29-1.64-4.27-3.88-4.27s-3.9,1.96-3.9,4.27,1.64,4.28,3.9,4.28,3.88-1.99,3.88-4.28Z"/>
      <path class="st0" d="M30.41,10.05c0-1.17,1.04-1.99,2.06-1.99s2.06.82,2.06,1.99-1.04,2.01-2.06,2.01-2.06-.82-2.06-2.01ZM30.98,27.85v-13.37h3.01v13.37s-3.01,0-3.01,0Z"/>
      <path class="st0" d="M38.27,27.85V6.47h3.01v21.38s-3.01,0-3.01,0Z"/>
      <path class="st0" d="M44.95,27.85v-13.37h2.91l-.02,2.19c.47-1.02,1.81-2.51,4.08-2.51.55,0,1.02.08,1.27.15v2.98c-.32-.1-.77-.17-1.24-.17-2.24,0-3.98,1.62-3.98,4.77v5.97h-3.02Z"/>
    </g>
  </g>
</svg>